<?xml version="1.0" encoding="UTF-8"?>
<svg xmlns="http://www.w3.org/2000/svg" viewBox="0 0 1100 520" width="1100" height="520">
  <defs>
    <style type="text/css"><![CDATA[
      .title { font: 700 22px "Noto Sans CJK SC", "Noto Sans CJK", sans-serif; fill: #1a2332; }
      .label { font: 500 13px "Noto Sans CJK SC", "Noto Sans CJK", sans-serif; fill: #243447; }
      .small { font: 400 11px "Noto Sans CJK SC", "Noto Sans CJK", sans-serif; fill: #4a5a6a; }
      .steel { fill: #8a96a3; stroke: #3d4a57; stroke-width: 1.2; }
      .tube { fill: #a8b4c0; stroke: #3d4a57; stroke-width: 1.4; }
      .shaft { fill: #5c6770; stroke: #2c343c; stroke-width: 1; }
      .bearing { fill: #d4a84b; stroke: #8a6a20; stroke-width: 1; }
      .seal { fill: #3d7ea6; stroke: #1f4f6e; stroke-width: 0.8; }
      .damp { fill: #5a8f6a; stroke: #2f5a3c; stroke-width: 0.8; }
      .cap { fill: #6e7f90; stroke: #2f3b48; stroke-width: 1; }
      .housing { fill: #c5ced6; stroke: #3d4a57; stroke-width: 1.2; }
      .leader { stroke: #c45c26; stroke-width: 1; fill: none; }
      .bg { fill: #f3f6f8; }
      .center { stroke: #9aa8b5; stroke-width: 0.8; stroke-dasharray: 6 4; }
    ]]></style>
    <marker id="dot" markerWidth="6" markerHeight="6" refX="3" refY="3">
      <circle cx="3" cy="3" r="2.2" fill="#c45c26"/>
    </marker>
  </defs>
  <rect width="1100" height="520" class="bg"/>
  <text x="40" y="42" class="title">图1  静音托辊总体结构（半剖示意）</text>
  <text x="40" y="64" class="small">成熟主流：精密钢管筒 + 冲压轴承座 + 深沟球轴承 + 多级迷宫密封 + 高分子阻尼端盖</text>
  <line x1="80" y1="270" x2="1020" y2="270" class="center"/>
  <rect x="100" y="252" width="900" height="36" class="shaft" rx="2"/>
  <rect x="100" y="246" width="36" height="48" class="shaft"/>
  <rect x="964" y="246" width="36" height="48" class="shaft"/>
  <text x="98" y="318" class="label">轴端</text>
  <text x="968" y="318" class="label">轴端</text>
  <path d="M180 175 H920 V210 H180 Z" class="tube"/>
  <path d="M180 330 H920 V365 H180 Z" class="tube"/>
  <text x="500" y="160" class="label">辊筒（精密 ERW 钢管 / 可选 HDPE 复合筒）</text>
  <path d="M210 210 H310 V330 H210 Z" class="housing"/>
  <circle cx="260" cy="270" r="38" fill="#e8c56a" stroke="#8a6a20" stroke-width="1"/>
  <circle cx="260" cy="270" r="18" class="shaft"/>
  <circle cx="260" cy="270" r="28" fill="none" stroke="#8a6a20" stroke-width="3"/>
  <circle cx="260" cy="242" r="4" fill="#f5e6b8" stroke="#8a6a20"/>
  <circle cx="260" cy="298" r="4" fill="#f5e6b8" stroke="#8a6a20"/>
  <circle cx="232" cy="270" r="4" fill="#f5e6b8" stroke="#8a6a20"/>
  <circle cx="288" cy="270" r="4" fill="#f5e6b8" stroke="#8a6a20"/>
  <rect x="210" y="200" width="100" height="10" class="damp"/>
  <rect x="210" y="330" width="100" height="10" class="damp"/>
  <rect x="150" y="220" width="55" height="100" class="cap" rx="2"/>
  <rect x="158" y="228" width="38" height="6" class="seal"/>
  <rect x="162" y="240" width="34" height="5" class="seal"/>
  <rect x="158" y="252" width="38" height="6" class="seal"/>
  <rect x="162" y="264" width="34" height="5" class="seal"/>
  <rect x="158" y="276" width="38" height="6" class="seal"/>
  <rect x="162" y="288" width="34" height="5" class="seal"/>
  <rect x="158" y="300" width="38" height="6" class="seal"/>
  <path d="M155 235 L148 245 L148 295 L155 305 Z" fill="#2a6b8a" stroke="#1f4f6e"/>
  <path d="M130 205 L150 205 L150 335 L130 335 Q118 270 130 205 Z" fill="#4a7d5c" stroke="#2f5a3c" stroke-width="1.2"/>
  <path d="M790 210 H890 V330 H790 Z" class="housing"/>
  <circle cx="840" cy="270" r="38" fill="#e8c56a" stroke="#8a6a20"/>
  <circle cx="840" cy="270" r="18" class="shaft"/>
  <circle cx="840" cy="270" r="28" fill="none" stroke="#8a6a20" stroke-width="3"/>
  <circle cx="840" cy="242" r="4" fill="#f5e6b8" stroke="#8a6a20"/>
  <circle cx="840" cy="298" r="4" fill="#f5e6b8" stroke="#8a6a20"/>
  <circle cx="812" cy="270" r="4" fill="#f5e6b8" stroke="#8a6a20"/>
  <circle cx="868" cy="270" r="4" fill="#f5e6b8" stroke="#8a6a20"/>
  <rect x="790" y="200" width="100" height="10" class="damp"/>
  <rect x="790" y="330" width="100" height="10" class="damp"/>
  <rect x="895" y="220" width="55" height="100" class="cap" rx="2"/>
  <rect x="904" y="228" width="38" height="6" class="seal"/>
  <rect x="904" y="240" width="34" height="5" class="seal"/>
  <rect x="904" y="252" width="38" height="6" class="seal"/>
  <rect x="904" y="264" width="34" height="5" class="seal"/>
  <rect x="904" y="276" width="38" height="6" class="seal"/>
  <rect x="904" y="288" width="34" height="5" class="seal"/>
  <rect x="904" y="300" width="38" height="6" class="seal"/>
  <path d="M950 235 L957 245 L957 295 L950 305 Z" fill="#2a6b8a" stroke="#1f4f6e"/>
  <path d="M950 205 L970 205 Q982 270 970 335 L950 335 Z" fill="#4a7d5c" stroke="#2f5a3c" stroke-width="1.2"/>
  <ellipse cx="550" cy="270" rx="90" ry="28" fill="#f0e6c8" opacity="0.35"/>
  <text x="500" y="275" class="small">脂腔 / 低噪声润滑脂</text>
  <path d="M260 210 L260 120 L340 120" class="leader" marker-start="url(#dot)"/>
  <text x="348" y="124" class="label">1 深沟球轴承（低噪声级 Z2/Z3）</text>
  <path d="M175 250 L175 100 L340 100" class="leader" marker-start="url(#dot)"/>
  <text x="348" y="104" class="label">2 多级迷宫密封（非接触，5-7 级）</text>
  <path d="M140 270 L90 270 L90 400 L220 400" class="leader" marker-start="url(#dot)"/>
  <text x="228" y="404" class="label">3 高分子阻尼端盖（隔振 + 防雨）</text>
  <path d="M260 340 L260 430 L400 430" class="leader" marker-start="url(#dot)"/>
  <text x="408" y="434" class="label">4 阻尼减振环（座-筒解耦）</text>
  <path d="M840 210 L840 145 L920 145" class="leader" marker-start="url(#dot)"/>
  <text x="928" y="149" class="label">5 冲压轴承座</text>
  <path d="M550 175 L550 90 L640 90" class="leader" marker-start="url(#dot)"/>
  <text x="648" y="94" class="label">6 精密辊筒</text>
  <path d="M550 288 L550 470 L200 470" class="leader" marker-start="url(#dot)"/>
  <text x="80" y="490" class="label">7 冷拉圆钢轴（轴端扁/六方定位）</text>
  <g transform="translate(780, 380)">
    <rect x="0" y="0" width="280" height="110" fill="#fff" stroke="#c5d0da" rx="6"/>
    <text x="14" y="22" class="label">图例</text>
    <rect x="14" y="34" width="18" height="12" fill="#e8c56a" stroke="#8a6a20"/><text x="40" y="44" class="small">轴承</text>
    <rect x="100" y="34" width="18" height="12" class="seal"/><text x="126" y="44" class="small">迷宫密封</text>
    <rect x="14" y="56" width="18" height="12" class="damp"/><text x="40" y="66" class="small">阻尼件</text>
    <rect x="100" y="56" width="18" height="12" class="housing"/><text x="126" y="66" class="small">轴承座</text>
    <rect x="14" y="78" width="18" height="12" class="shaft"/><text x="40" y="88" class="small">轴</text>
    <rect x="100" y="78" width="18" height="12" class="tube"/><text x="126" y="88" class="small">辊筒</text>
  </g>
</svg>
